<?xml version="1.0" encoding="utf-8"?>
<!-- Generator: Adobe Illustrator 23.0.0, SVG Export Plug-In . SVG Version: 6.00 Build 0)  -->
<svg version="1.1" id="Layer_1" xmlns="http://www.w3.org/2000/svg" xmlns:xlink="http://www.w3.org/1999/xlink" x="0px" y="0px"
	 viewBox="0 0 332.8 334.5" style="enable-background:new 0 0 332.8 334.5;" xml:space="preserve">
<style type="text/css">
	.st0{fill:#FFFFFF;}
	.st1{fill-rule:evenodd;clip-rule:evenodd;fill:#FFFFFF;}
	.st2{fill:#2AC4F4;}
	.st3{fill:#00485E;}
	.st4{fill-rule:evenodd;clip-rule:evenodd;fill:#00485E;}
	.st5{fill-rule:evenodd;clip-rule:evenodd;fill:#2AC4F4;}
	.st6{fill:#151515;}
</style>
<g>
	<polygon class="st4" points="301.3,115.8 300.8,165.6 300.8,165.6 300.8,170.5 300.8,248.8 233.4,287.6 178.2,319.4 178.2,261.4 
		208.3,243.8 250.9,219.8 250.9,194 212.1,215.9 212.1,165.6 249.9,145.3 249.9,145.3 	"/>
	<polygon class="st4" points="81.8,144.8 81.8,170.5 81.8,219.8 124,243.8 154.6,261.4 154.6,319.4 98.8,287.6 31.5,248.8 
		31.5,170.5 31.5,115.8 	"/>
	<polygon class="st5" points="166.1,15.1 233.4,53.9 300.2,92.2 249.9,121.3 208.3,97.7 191.3,87.3 191.3,226.3 166.1,241.1 
		140.9,226.3 140.9,87.3 124,97.7 82.4,121.3 32,92.2 98.8,53.9 	"/>
</g>
</svg>
