<?xml version="1.0" encoding="utf-8"?>
<!-- Generator: Adobe Illustrator 23.0.0, SVG Export Plug-In . SVG Version: 6.00 Build 0)  -->
<svg version="1.1" id="Layer_1" xmlns="http://www.w3.org/2000/svg" xmlns:xlink="http://www.w3.org/1999/xlink" x="0px" y="0px"
	 viewBox="0 0 1034.8 174.2" style="enable-background:new 0 0 1034.8 174.2;" xml:space="preserve">
<style type="text/css">
	.st0{fill:#FFFFFF;}
	.st1{fill-rule:evenodd;clip-rule:evenodd;fill:#FFFFFF;}
	.st2{fill:#2AC4F4;}
	.st3{fill:#00485E;}
	.st4{fill-rule:evenodd;clip-rule:evenodd;fill:#00485E;}
	.st5{fill-rule:evenodd;clip-rule:evenodd;fill:#2AC4F4;}
	.st6{fill:#151515;}
</style>
<g>
	<path class="st6" d="M31.4,120.3l8-65.4h12.3c1.9,5.8,4.6,14.5,8.4,26.1c3.7,11.6,6.5,20.3,8.4,26c3.8-6.8,9.3-16.6,16.5-29.4
		c7.2-12.7,11.5-20.3,12.9-22.8h12.2l-8,65.4h-9.7l5.9-48.5c-3.7,6.3-9,15.6-15.9,27.8c-6.9,12.2-10.8,19.1-11.8,20.7H63
		c-1.4-4.3-3.9-11.9-7.5-22.9C52,86.5,49.2,78,47.3,72.1l-5.9,48.2H31.4z"/>
	<path class="st6" d="M138.8,121.3c-3.3,0-6.2-0.5-8.7-1.6c-2.5-1.1-4.6-2.6-6.2-4.5c-1.6-1.9-2.7-4-3.5-6.4s-1.2-4.9-1.2-7.7
		c0-1.1,0.1-2.3,0.2-3.5c0.4-3.2,1.3-6.3,2.6-9.3c1.4-2.9,3.1-5.5,5.3-7.8c2.1-2.3,4.7-4.1,7.8-5.4s6.3-2,9.8-2c3.1,0,5.7,0.7,7.9,2
		c2.2,1.3,3.9,3,5.1,5.2l0.8-6h9.8l-5.7,46.1h-10l0.9-6.9c-1.7,2.4-3.8,4.3-6.4,5.8C144.8,120.6,141.9,121.3,138.8,121.3z
		 M156.5,93.8c0-3.9-1-6.9-2.9-9.2c-1.9-2.3-4.8-3.4-8.6-3.4c-4.9,0-8.8,1.8-11.5,5.3c-2.8,3.6-4.2,8.2-4.2,13.8c0,3.9,1,7,2.9,9.4
		c2,2.3,4.9,3.5,9,3.5c4.8,0,8.6-1.8,11.2-5.4C155.1,104.1,156.5,99.5,156.5,93.8z"/>
	<path class="st6" d="M177.1,120.3l4.3-34.6c0.1-1.3,0.3-2.8,0.4-4.8c0.1-1.9,0.2-3.5,0.2-4.8l0-1.9h10.7l-0.8,6.5
		c4-5.1,8.2-7.7,12.8-7.7c1.5,0,3,0.2,4.6,0.7l-1.1,8.8c-1.7-0.6-3.5-0.9-5.3-0.9c-3.2,0-6,1.1-8.3,3.3s-3.7,5.3-4.2,9.4l-3.2,25.9
		H177.1z"/>
	<path class="st6" d="M211.3,120.3l8.1-66h10.1l-4.8,39l20.2-19.1h13.8l-25.2,22.1l21.1,24h-13.3l-17.4-20.7l-2.5,20.7H211.3z"/>
	<path class="st6" d="M305.8,98.9H273c-0.1,1-0.1,1.6-0.1,2c0,4.1,1.2,7.1,3.5,9.2c2.3,2.1,5.5,3.1,9.6,3.1c5.2,0,10.3-1.7,15.1-5
		l1.9,7.4c-5.7,3.9-11.9,5.8-18.8,5.8c-6.9,0-12.2-1.8-16-5.5c-3.8-3.7-5.8-8.6-5.8-14.8c0-1.4,0.1-2.7,0.2-3.8
		c0.4-3.3,1.3-6.5,2.8-9.4c1.5-2.9,3.3-5.5,5.5-7.7c2.2-2.2,4.9-3.9,8-5.2c3.1-1.3,6.4-1.9,9.9-1.9c6,0,10.4,1.7,13.4,5.2
		c2.9,3.4,4.4,8.1,4.4,13.9C306.5,95,306.3,97.2,305.8,98.9z M274,92.1h23.9v-0.3c0-3.5-0.8-6.2-2.5-8.1c-1.7-1.9-4-2.8-7-2.8
		c-3.4,0-6.3,1-8.9,3C276.9,85.8,275.1,88.6,274,92.1z"/>
	<path class="st6" d="M340.4,120.2h-4.3c-2.9,0-5.4-0.2-7.3-0.5c-1.9-0.3-3.6-0.9-5.1-1.8c-1.5-0.9-2.6-2.1-3.3-3.7
		c-0.7-1.6-1-3.7-1-6.2c0-1.3,0.1-2.8,0.3-4.3l2.8-22.8h-9.2l0.9-6.7h9.4L325,63l10.1-2.9l-1.7,14.2h12.6l-0.9,6.7h-12.6l-2.8,23.4
		c-0.1,0.8-0.2,1.7-0.2,2.6c0,2.4,0.8,3.9,2.4,4.6c1.6,0.7,4.8,1,9.5,1L340.4,120.2z"/>
	<path class="st6" d="M395.8,98.9H363c-0.1,1-0.1,1.6-0.1,2c0,4.1,1.2,7.1,3.5,9.2c2.3,2.1,5.5,3.1,9.6,3.1c5.2,0,10.3-1.7,15.1-5
		l1.9,7.4c-5.7,3.9-11.9,5.8-18.8,5.8c-6.9,0-12.2-1.8-16-5.5c-3.8-3.7-5.8-8.6-5.8-14.8c0-1.4,0.1-2.7,0.2-3.8
		c0.4-3.3,1.3-6.5,2.8-9.4c1.5-2.9,3.3-5.5,5.5-7.7c2.2-2.2,4.9-3.9,8-5.2c3.1-1.3,6.4-1.9,9.9-1.9c6,0,10.4,1.7,13.4,5.2
		c2.9,3.4,4.4,8.1,4.4,13.9C396.5,95,396.3,97.2,395.8,98.9z M363.9,92.1h23.9v-0.3c0-3.5-0.8-6.2-2.5-8.1c-1.7-1.9-4-2.8-7-2.8
		c-3.4,0-6.3,1-8.9,3C366.9,85.8,365.1,88.6,363.9,92.1z"/>
	<path class="st6" d="M405.7,120.3l4.3-34.6c0.1-1.3,0.3-2.8,0.4-4.8c0.1-1.9,0.2-3.5,0.2-4.8l0-1.9h10.7l-0.8,6.5
		c4-5.1,8.2-7.7,12.8-7.7c1.5,0,3,0.2,4.6,0.7l-1.1,8.8c-1.7-0.6-3.5-0.9-5.3-0.9c-3.2,0-6,1.1-8.3,3.3s-3.7,5.3-4.2,9.4l-3.2,25.9
		H405.7z"/>
	<path class="st6" d="M466.7,106.6c0-1.2-0.5-2.2-1.6-2.9c-1.1-0.8-3.2-1.7-6.4-2.8l-4.1-1.5c-1.8-0.6-3.2-1.2-4.4-1.8
		c-1.1-0.6-2.2-1.3-3.3-2.1s-1.9-1.9-2.4-3.1c-0.5-1.2-0.8-2.6-0.8-4.2c0-2.6,0.5-5,1.6-7c1.1-2,2.5-3.6,4.3-4.7
		c1.8-1.2,3.8-2,5.9-2.6c2.1-0.6,4.4-0.9,6.7-0.9c3.1,0,6,0.4,8.7,1.2c2.7,0.8,5,1.8,6.8,3.1l-3.5,7c-1.5-0.8-3.4-1.6-5.6-2.3
		c-2.2-0.7-4.4-1-6.4-1c-5.7,0-8.6,1.9-8.6,5.6c0,1.1,0.5,2,1.4,2.7c0.9,0.7,2.8,1.5,5.6,2.5c0.2,0.1,1.7,0.6,4.3,1.6
		c1.9,0.7,3.4,1.3,4.6,1.9s2.3,1.3,3.4,2.2c1.1,0.9,1.9,2,2.4,3.2c0.5,1.2,0.8,2.7,0.8,4.4c0,2.9-0.6,5.4-1.7,7.6
		c-1.1,2.2-2.6,3.9-4.4,5.1s-3.8,2.1-5.9,2.7c-2.1,0.6-4.2,0.9-6.4,0.9c-4,0-7.6-0.6-10.7-1.8c-3.1-1.2-5.5-2.5-7.1-4l3.5-7.4
		c1.6,1.4,3.8,2.6,6.5,3.5c2.7,1,5.3,1.5,8,1.5C463.8,113.3,466.7,111.1,466.7,106.6z"/>
	<path class="st6" d="M529.7,120.3l-17.4-65.4h7.2l12.7,50.4l1.6,7.8c2.1-7.7,5.2-18.6,9.4-32.7c4.2-14,6.7-22.6,7.6-25.6h6.7
		l15,50.6l2,7.2c1.8-7.5,4.4-18.3,7.8-32.3c3.4-14,5.4-22.5,6.2-25.5h6.9l-16.8,65.4h-7.9l-16.5-56.6l-16.7,56.6H529.7z"/>
	<path class="st6" d="M607.5,120.3V52.9h6.3v29.4c1.6-2.8,3.8-5,6.8-6.7c3-1.7,6.4-2.5,10.2-2.5c4.9,0,9,1.5,12.1,4.6
		s4.6,7.6,4.6,13.4v29.2h-6.3V91.7c0-4.6-0.9-8-2.6-10.2c-1.7-2.2-4.5-3.3-8.4-3.3c-4.3,0-8.1,1.4-11.4,4.3c-3.3,2.8-5,6.1-5,9.7
		v28.1H607.5z"/>
	<path class="st6" d="M683.3,121.2c-7.3,0-13-2.2-17.3-6.6c-4.2-4.4-6.3-10.2-6.3-17.3c0-7.3,2.1-13.2,6.4-17.7
		c4.2-4.4,10-6.6,17.3-6.6s13,2.2,17.2,6.6c4.2,4.4,6.3,10.3,6.3,17.7c0,7.2-2.1,13-6.3,17.3C696.3,119.1,690.6,121.2,683.3,121.2z
		 M683.3,116c5.4,0,9.5-1.7,12.5-5.1c2.9-3.4,4.4-7.9,4.4-13.6c0-5.8-1.5-10.5-4.4-13.9c-3-3.4-7.1-5.2-12.5-5.2
		c-5.4,0-9.6,1.7-12.5,5.2c-3,3.4-4.4,8.1-4.4,13.9c0,5.7,1.5,10.2,4.4,13.6C673.8,114.3,678,116,683.3,116z"/>
	<path class="st6" d="M776.4,121.3c-10.8,0-19-2.9-24.8-8.8c-5.8-5.9-8.7-13.8-8.7-23.9c0-3.7,0.5-7.3,1.4-10.8s2.4-6.7,4.3-9.6
		c1.9-2.9,4.3-5.5,7-7.7c2.7-2.2,6-3.9,9.7-5.1c3.8-1.2,7.8-1.8,12.2-1.8c3.1,0,5.9,0.2,8.4,0.7c2.5,0.4,4.7,1.1,6.5,1.9
		s3.1,1.5,4,2c0.9,0.5,1.8,1.2,2.9,2l-4.6,8c-4.3-3.1-10-4.7-17.2-4.7c-3.8,0-7.2,0.7-10.2,2.1c-3,1.4-5.4,3.3-7.2,5.7
		c-1.8,2.4-3.2,5-4.1,7.9c-0.9,2.9-1.4,5.9-1.4,9c0,3.4,0.5,6.6,1.4,9.4c0.9,2.8,2.3,5.3,4.1,7.4c1.8,2.1,4.1,3.7,6.9,4.9
		c2.8,1.2,6.1,1.7,9.7,1.7c3.6,0,7.4-0.6,11.2-1.7V94.4h-15.3v-9.7h26.9v31.7C792.2,119.7,784.5,121.3,776.4,121.3z"/>
	<path class="st6" d="M837.2,121.3c-7.8,0-13.9-2.2-18.4-6.6c-4.5-4.4-6.7-10.2-6.7-17.4c0-3.2,0.5-6.3,1.6-9.2
		c1.1-2.9,2.6-5.5,4.6-7.7c2-2.2,4.4-4,7.5-5.3c3-1.3,6.3-2,10-2c3.7,0,6.8,0.6,9.6,1.9c2.7,1.3,4.9,3,6.5,5.3
		c1.6,2.3,2.8,4.8,3.5,7.6c0.8,2.8,1.1,5.9,1.1,9.3c0,0.9-0.1,1.5-0.2,2h-32.3c0.2,4.5,1.5,7.8,4.1,10s6,3.2,10.2,3.2
		c5,0,9.8-1.6,14.6-4.9l3,8.1c-2.9,2-5.8,3.5-8.8,4.4C844,120.9,840.7,121.3,837.2,121.3z M824,91.7h22.9c-0.5-3.3-1.8-5.8-3.6-7.5
		c-1.9-1.7-4.2-2.6-6.9-2.6c-3.2,0-5.9,0.9-8,2.7S824.7,88.6,824,91.7z"/>
	<path class="st6" d="M894.6,120.2h-4.5c-1.8,0-3.4,0-4.7-0.1c-1.3-0.1-2.7-0.3-4.1-0.6c-1.4-0.3-2.6-0.7-3.5-1.2
		c-1-0.5-1.9-1.2-2.8-2c-0.9-0.8-1.6-1.8-2.2-3c-0.5-1.2-1-2.6-1.3-4.2c-0.3-1.6-0.5-3.5-0.5-5.7V81.7h-9.6v-7.5h10.1V63.4l10.6-3.3
		v14.1h12v7.5h-12v22.4c0,1.4,0.1,2.6,0.3,3.5c0.2,0.9,0.6,1.6,1,2.2s1.2,1,2.3,1.3c1.1,0.3,2.2,0.4,3.5,0.5s3,0.1,5.3,0.1V120.2z"
		/>
	<path class="st6" d="M931.7,120.3V54.9h11.4v65.4H931.7z"/>
	<path class="st6" d="M971.5,120.3V64.7h-20.2v-9.8h52.1v9.8h-20.5v55.6H971.5z"/>
</g>
</svg>
