<?xml version="1.0" encoding="utf-8"?>
<!-- Generator: Adobe Illustrator 23.0.0, SVG Export Plug-In . SVG Version: 6.00 Build 0)  -->
<svg version="1.1" id="Layer_1" xmlns="http://www.w3.org/2000/svg" xmlns:xlink="http://www.w3.org/1999/xlink" x="0px" y="0px"
	 viewBox="0 0 1112 616" style="enable-background:new 0 0 1112 616;" xml:space="preserve">
<style type="text/css">
	.st0{fill:#FFFFFF;}
	.st1{fill-rule:evenodd;clip-rule:evenodd;fill:#FFFFFF;}
	.st2{fill:#2AC4F4;}
	.st3{fill:#00485E;}
	.st4{fill-rule:evenodd;clip-rule:evenodd;fill:#00485E;}
	.st5{fill-rule:evenodd;clip-rule:evenodd;fill:#2AC4F4;}
	.st6{fill:none;}
	.st7{fill:#151515;}
	.st8{font-family:'Muli-Semi-BoldItalic';}
	.st9{font-size:92px;}
	.st10{font-family:'Muli-Light';}
	.st11{font-family:'Muli-Bold';}
</style>
<g>
	<polygon class="st2" points="106,379.5 106,394.4 76.6,394.4 76.6,448.6 56.8,448.6 56.8,394.4 26.9,394.4 26.9,379.5 	"/>
	<path class="st2" d="M135.4,431.4c0,1.8,0.9,2.3,2.3,2.3h56.9v14.9h-61.5c-11.3,0-17.2-5-17.2-14.9v-54.2h19.4V431.4L135.4,431.4z"
		/>
	<path class="st2" d="M293.5,448.6h-71.4c-11.3,0-17.2-5-17.2-14.9v-37.1c0-11.3,5.9-17.2,17.2-17.2h71.4v14.9h-66.9
		c-1.8,0-2.3,0.9-2.3,2.3V431c0,1.8,0.9,2.3,2.3,2.3h47v-19.9h19.9V448.6L293.5,448.6z"/>
	<path class="st3" d="M350,403.9h-14.9v44.3h-19.9v-58.7h71.4c11.3,0,17.2,5,17.2,14.9v44.3h-19.9v-42c0-1.8-0.9-2.3-2.3-2.3h-12.2
		v44.3h-19.9v-44.7H350z"/>
	<path class="st3" d="M413.7,389.4h61.5c11.3,0,17.2,5,17.2,14.5v44.7h-61.9c-11.3,0-17.2-5-17.2-14.9v-7.2
		c0-9.9,5.9-14.9,17.2-14.9h42v-5c0-1.8-0.9-2.3-2.3-2.3h-56.9v-14.9H413.7z M435.9,426c-1.8,0-2.3,0.9-2.3,2.7v2.3
		c0,1.8,0.9,2.3,2.3,2.3h37.1V426H435.9L435.9,426z"/>
	<path class="st3" d="M522.6,448.6h-19.9v-59.2h61.5c11.3,0,17.2,5,17.2,14.9v7.2h-19.9v-5c0-1.8-0.9-2.3-2.3-2.3h-37.1v44.3H522.6z
		"/>
	<polygon class="st3" points="626.1,411.6 648.2,389.4 673.1,389.4 643.3,418.8 673.1,448.6 648.2,448.6 626.1,426.5 611.2,426.5 
		611.2,448.6 591.8,448.6 591.8,379.5 611.2,379.5 611.2,411.6 	"/>
	<path class="st3" d="M759.4,448.6h-61.9c-11.3,0-17.2-5-17.2-14.9v-29.8c0-9.9,5.9-14.9,17.2-14.9h44.3c11.3,0,17.2,5,17.2,14.9
		v7.2c0,9.9-5.9,14.9-17.2,14.9h-41.6v5c0,1.8,0.9,2.3,2.3,2.7h56.9V448.6L759.4,448.6z M737.3,411.6c1.8,0,2.3-0.9,2.3-2.7v-2.3
		c0-1.8-0.9-2.3-2.3-2.3h-34.3c-1.8,0-2.3,0.9-2.3,2.3v5H737.3L737.3,411.6z"/>
	<path class="st3" d="M798.7,403.9V431c0,1.8,0.9,2.3,2.3,2.3h27.1v14.9H796c-11.3,0-17.2-5-17.2-14.9v-29.8h-9.9v-14.9h9.9v-9.9
		h19.9v9.9h29.8v14.9h-29.8V403.9z"/>
	<path class="st3" d="M857.9,391.7v56.9H838v-56.9H857.9L857.9,391.7z M838,369.5h19.9v14.9H838V369.5L838,369.5z"/>
	<path class="st3" d="M887.7,448.6h-19.9v-59.2h61.5c11.3,0,17.2,5,17.2,14.9v44.3h-19.9v-42c0-1.8-0.9-2.3-2.3-2.3h-37.1v44.3
		H887.7z"/>
	<path class="st3" d="M978.5,404.3c-1.8,0-2.3,0.9-2.3,2.3V431c0,1.8,0.9,2.3,2.3,2.3h34.8c1.8,0,2.3-0.9,2.3-2.3v-27.1L978.5,404.3
		L978.5,404.3z M1015.6,448.6h-42c-11.3,0-17.2-5-17.2-14.9v-29.8c0-9.9,5.9-14.9,17.2-14.9h61.5v66.4c0,9.9-5.9,14.9-17.2,14.9h-52
		v-14.9h47c1.8,0,2.3-0.9,2.3-2.7L1015.6,448.6L1015.6,448.6z"/>
</g>
<g>
	<polygon class="st4" points="303.3,126.9 302.7,176.7 302.7,176.7 302.7,181.6 302.7,259.9 235.4,298.7 180.2,330.5 180.2,272.5 
		210.3,254.9 252.9,230.9 252.9,205.1 214.1,227 214.1,176.7 251.8,156.4 251.8,156.4 	"/>
	<polygon class="st4" points="83.8,155.9 83.8,181.6 83.8,230.9 126,254.9 156.6,272.5 156.6,330.5 100.8,298.7 33.5,259.9 
		33.5,181.6 33.5,126.9 	"/>
	<polygon class="st5" points="168.1,26.2 235.4,65 302.2,103.3 251.8,132.3 210.3,108.8 193.3,98.4 193.3,237.4 168.1,252.2 
		142.9,237.4 142.9,98.4 126,108.8 84.4,132.3 34,103.3 100.8,65 	"/>
</g>
<rect x="52" y="501" class="st6" width="1008" height="115"/>
<text transform="matrix(1 0 0 1 51.9998 568.4271)"><tspan x="0" y="0" class="st7 st8 st9">Marketers</tspan><tspan x="454.7" y="0" class="st7 st10 st9"> Who </tspan><tspan x="711.5" y="0" class="st7 st11 st9">Get IT</tspan></text>
</svg>
