<?xml version="1.0" encoding="utf-8"?>
<!-- Generator: Adobe Illustrator 23.0.0, SVG Export Plug-In . SVG Version: 6.00 Build 0)  -->
<svg version="1.1" id="Layer_1" xmlns="http://www.w3.org/2000/svg" xmlns:xlink="http://www.w3.org/1999/xlink" x="0px" y="0px"
	 viewBox="0 0 1061.6 155.3" style="enable-background:new 0 0 1061.6 155.3;" xml:space="preserve">
<style type="text/css">
	.st0{fill:#FFFFFF;}
	.st1{fill-rule:evenodd;clip-rule:evenodd;fill:#FFFFFF;}
	.st2{fill:#2AC4F4;}
	.st3{fill:#00485E;}
	.st4{fill-rule:evenodd;clip-rule:evenodd;fill:#00485E;}
	.st5{fill-rule:evenodd;clip-rule:evenodd;fill:#2AC4F4;}
	.st6{fill:#151515;}
</style>
<g>
	<polygon class="st2" points="104.4,43.2 104.4,58.1 75,58.1 75,112.4 55.1,112.4 55.1,58.1 25.3,58.1 25.3,43.2 	"/>
	<path class="st2" d="M133.7,95.2c0,1.8,0.9,2.3,2.3,2.3h56.9v14.9h-61.5c-11.3,0-17.2-5-17.2-14.9V43.2h19.4V95.2L133.7,95.2z"/>
	<path class="st2" d="M291.9,112.4h-71.4c-11.3,0-17.2-5-17.2-14.9V60.4c0-11.3,5.9-17.2,17.2-17.2h71.4v14.9H225
		c-1.8,0-2.3,0.9-2.3,2.3v34.3c0,1.8,0.9,2.3,2.3,2.3h47V77.1h19.9V112.4L291.9,112.4z"/>
	<path class="st3" d="M348.4,67.6h-14.9v44.3h-19.9V53.2H385c11.3,0,17.2,5,17.2,14.9v44.3h-19.9v-42c0-1.8-0.9-2.3-2.3-2.3h-12.2
		v44.3h-19.9V67.6H348.4z"/>
	<path class="st3" d="M412.1,53.2h61.5c11.3,0,17.2,5,17.2,14.5v44.7h-61.9c-11.3,0-17.2-5-17.2-14.9v-7.2c0-9.9,5.9-14.9,17.2-14.9
		h42v-5c0-1.8-0.9-2.3-2.3-2.3h-56.9V53.2H412.1z M434.2,89.8c-1.8,0-2.3,0.9-2.3,2.7v2.3c0,1.8,0.9,2.3,2.3,2.3h37.1v-7.2H434.2
		L434.2,89.8z"/>
	<path class="st3" d="M521,112.4h-19.9V53.2h61.5c11.3,0,17.2,5,17.2,14.9v7.2h-19.9v-5c0-1.8-0.9-2.3-2.3-2.3h-37.1v44.3H521z"/>
	<polygon class="st3" points="624.4,75.3 646.6,53.2 671.4,53.2 641.6,82.5 671.4,112.4 646.6,112.4 624.4,90.2 609.5,90.2 
		609.5,112.4 590.1,112.4 590.1,43.2 609.5,43.2 609.5,75.3 	"/>
	<path class="st3" d="M757.7,112.4h-61.9c-11.3,0-17.2-5-17.2-14.9V67.6c0-9.9,5.9-14.9,17.2-14.9h44.3c11.3,0,17.2,5,17.2,14.9v7.2
		c0,9.9-5.9,14.9-17.2,14.9h-41.6v5c0,1.8,0.9,2.3,2.3,2.7h56.9V112.4L757.7,112.4z M735.6,75.3c1.8,0,2.3-0.9,2.3-2.7v-2.3
		c0-1.8-0.9-2.3-2.3-2.3h-34.3c-1.8,0-2.3,0.9-2.3,2.3v5H735.6L735.6,75.3z"/>
	<path class="st3" d="M797.1,67.6v27.1c0,1.8,0.9,2.3,2.3,2.3h27.1v14.9h-32.1c-11.3,0-17.2-5-17.2-14.9V67.2h-9.9V52.3h9.9v-9.9
		h19.9v9.9h29.8v14.9h-29.8V67.6z"/>
	<path class="st3" d="M856.2,55.4v56.9h-19.9V55.4H856.2L856.2,55.4z M836.4,33.3h19.9v14.9h-19.9V33.3L836.4,33.3z"/>
	<path class="st3" d="M886.1,112.4h-19.9V53.2h61.5c11.3,0,17.2,5,17.2,14.9v44.3h-19.9v-42c0-1.8-0.9-2.3-2.3-2.3h-37.1v44.3H886.1
		z"/>
	<path class="st3" d="M976.9,68.1c-1.8,0-2.3,0.9-2.3,2.3v24.4c0,1.8,0.9,2.3,2.3,2.3h34.8c1.8,0,2.3-0.9,2.3-2.3V67.6L976.9,68.1
		L976.9,68.1z M1013.9,112.4h-42c-11.3,0-17.2-5-17.2-14.9V67.6c0-9.9,5.9-14.9,17.2-14.9h61.5v66.4c0,9.9-5.9,14.9-17.2,14.9h-52
		v-14.9h47c1.8,0,2.3-0.9,2.3-2.7L1013.9,112.4L1013.9,112.4z"/>
</g>
</svg>
